<svg width="270" height="67" xmlns="http://www.w3.org/2000/svg" xmlns:xlink="http://www.w3.org/1999/xlink" overflow="hidden">
    <defs>
        <clipPath id="clip0">
            <rect x="184" y="75" width="270" height="67"/>
        </clipPath>
        <clipPath id="clip1">
            <rect x="185" y="75" width="268" height="66"/>
        </clipPath>
        <clipPath id="clip2">
            <rect x="185" y="75" width="267" height="66"/>
        </clipPath>
        <clipPath id="clip3">
            <rect x="172" y="75" width="280" height="66"/>
        </clipPath>
        <clipPath id="clip4">
            <rect x="172" y="75" width="280" height="66"/>
        </clipPath>
        <clipPath id="clip5">
            <rect x="172" y="76" width="279" height="64"/>
        </clipPath>
        <clipPath id="clip6">
            <rect x="172" y="76" width="279" height="64"/>
        </clipPath>
        <clipPath id="clip7">
            <rect x="185" y="83" width="55" height="53"/>
        </clipPath>
    </defs>
    <g clip-path="url(#clip0)" transform="translate(-184 -75)">
        <g clip-path="url(#clip1)">
            <g clip-path="url(#clip2)">
                <g clip-path="url(#clip3)">
                    <g clip-path="url(#clip4)">
                        <g clip-path="url(#clip5)">
                            <g clip-path="url(#clip6)">
                                <path d="M11.9487 27.9833 11.9487 27.9833C8.7388 27.9833 6.05164 26.9011 3.88718 24.7366L3.88718 24.7366 3.88718 24.7366C1.72273 22.5722 0.640502 19.8703 0.640502 16.631L0.640502 16.631 0.640502 16.631C0.640502 13.4505 1.72273 10.7707 3.88718 8.59156L3.88718 8.59156 3.88718 8.59156C6.05164 6.42711 8.7388 5.34488 11.9487 5.34488L11.9487 5.34488 11.9487 5.34488C15.1733 5.34488 17.9414 6.35349 20.2531 8.3707L20.2531 8.3707 17.2494 11.6616 17.2494 11.6616C15.7033 10.4542 13.9364 9.85048 11.9487 9.85048L11.9487 9.85048 11.9487 9.85048C9.91674 9.8652 8.27499 10.5057 7.02344 11.772L7.02344 11.772 7.02344 11.772C5.7866 13.0235 5.16819 14.6285 5.16819 16.5868L5.16819 16.5868 5.16819 16.5868C5.16819 18.6924 5.79397 20.3635 7.04552 21.6004L7.04552 21.6004 7.04552 21.6004C8.29708 22.8372 9.93882 23.4556 11.9708 23.4556L11.9708 23.4556 11.9708 23.4556C13.6051 23.4556 14.8567 23.1391 15.7254 22.5059L15.7254 22.5059 15.7254 18.6187 12.7217 18.6408 12.7217 14.4003 20.2531 14.4003 20.2531 24.9796 20.2531 24.9796C17.9561 26.9821 15.188 27.9833 11.9487 27.9833L11.9487 27.9833ZM28.3588 12.8763 28.3588 14.5549 28.3588 14.5549C29.4484 13.4505 30.7662 12.8984 32.3122 12.8984L32.3122 12.8984 32.3122 12.8984C32.7981 12.8984 33.2619 12.9352 33.7037 13.0088L33.7037 13.0088 33.0411 17.1831 33.0411 17.1831C32.5552 16.7414 31.8558 16.5058 30.9429 16.4764L30.9429 16.4764 30.9429 16.4764C29.9122 16.55 29.0508 17.2936 28.3588 18.7071L28.3588 18.7071 28.3588 27.9833 24.1403 27.9833 24.1403 13.3401 28.3588 12.8763ZM43.3112 28.1379 43.3112 28.1379C41.1173 28.1379 39.2841 27.4017 37.8117 25.9293L37.8117 25.9293 37.8117 25.9293C36.354 24.4569 35.6252 22.6311 35.6252 20.4519L35.6252 20.4519 35.6252 20.4519C35.6252 18.258 36.354 16.4248 37.8117 14.9524L37.8117 14.9524 37.8117 14.9524C39.2841 13.48 41.1173 12.7438 43.3112 12.7438L43.3112 12.7438 43.3112 12.7438C45.5051 12.7438 47.3382 13.48 48.8107 14.9524L48.8107 14.9524 48.8107 14.9524C50.2831 16.4248 51.0193 18.258 51.0193 20.4519L51.0193 20.4519 51.0193 20.4519C51.0193 22.6458 50.2831 24.4716 48.8107 25.9293L48.8107 25.9293 48.8107 25.9293C47.3382 27.4017 45.5051 28.1379 43.3112 28.1379L43.3112 28.1379ZM43.3112 24.4937 43.3112 24.4937 43.3112 24.4937C44.4449 24.4937 45.3726 24.1035 46.0941 23.3231L46.0941 23.3231 46.0941 23.3231C46.8155 22.5574 47.1763 21.6004 47.1763 20.4519L47.1763 20.4519 47.1763 20.4519C47.1763 19.3034 46.8155 18.3463 46.0941 17.5807L46.0941 17.5807 46.0941 17.5807C45.3726 16.8003 44.4376 16.4101 43.2891 16.4101L43.2891 16.4101 43.2891 16.4101C42.1553 16.4101 41.2277 16.8003 40.5062 17.5807L40.5062 17.5807 40.5062 17.5807C39.7995 18.3463 39.4461 19.3034 39.4461 20.4519L39.4461 20.4519 39.4461 20.4519C39.4461 21.6004 39.7995 22.5574 40.5062 23.3231L40.5062 23.3231 40.5062 23.3231C41.2277 24.1035 42.1627 24.4937 43.3112 24.4937ZM62.9901 22.6384 62.9901 22.6384 62.9901 12.8763 67.2085 12.8763 67.2085 27.9833 62.9901 27.9833 62.9901 26.614 62.9901 26.614C61.9741 27.5269 60.7667 27.9833 59.3679 27.9833L59.3679 27.9833 59.3679 27.9833C57.4538 27.9833 55.9961 27.4017 54.9948 26.2385L54.9948 26.2385 54.9948 26.2385C53.9789 25.0753 53.4709 23.7427 53.4709 22.2409L53.4709 22.2409 53.4709 12.8763 57.7114 12.8763 57.7114 21.1807 57.7114 21.1807C57.7114 22.182 57.9617 22.9624 58.4624 23.5219L58.4624 23.5219 58.4624 23.5219C58.963 24.0814 59.7213 24.3759 60.7373 24.4053L60.7373 24.4053 60.7373 24.4053C61.6207 24.3464 62.3716 23.7575 62.9901 22.6384ZM75.0271 34.3442 70.8086 34.3221 70.8086 13.3401 75.0271 12.8763 75.0271 14.091 75.0271 14.091C76.1608 13.2812 77.2725 12.8763 78.3621 12.8763L78.3621 12.8763 78.3621 12.8763C80.6738 12.8763 82.507 13.6346 83.8616 15.1512L83.8616 15.1512 83.8616 15.1512C85.2309 16.6531 85.9156 18.4126 85.9156 20.4298L85.9156 20.4298 85.9156 20.4298C85.9156 22.447 85.2309 24.2066 83.8616 25.7084L83.8616 25.7084 83.8616 25.7084C82.507 27.225 80.6738 27.9833 78.3621 27.9833L78.3621 27.9833 78.3621 27.9833C76.8455 27.8802 75.7338 27.468 75.0271 26.7465L75.0271 26.7465 75.0271 34.3442ZM75.0271 19.0605 75.0271 19.0605 75.0271 21.512 75.0271 21.512C75.2332 23.2053 76.2934 24.1992 78.2075 24.4937L78.2075 24.4937 78.2075 24.4937C80.6223 24.3023 81.9842 23.0507 82.2935 20.739L82.2935 20.739 82.2935 20.739C82.1904 17.912 80.8284 16.4469 78.2075 16.3438L78.2075 16.3438 78.2075 16.3438C76.2934 16.6531 75.2332 17.5586 75.0271 19.0605ZM95.744 28.1379 95.744 28.1379C93.5501 28.1379 91.7243 27.4017 90.2666 25.9293L90.2666 25.9293 90.2666 25.9293C88.7942 24.4569 88.058 22.6311 88.058 20.4519L88.058 20.4519 88.058 20.4519C88.058 18.258 88.7942 16.4248 90.2666 14.9524L90.2666 14.9524 90.2666 14.9524C91.7243 13.48 93.5501 12.7438 95.744 12.7438L95.744 12.7438 95.744 12.7438C97.9379 12.7438 99.7711 13.48 101.243 14.9524L101.243 14.9524 101.243 14.9524C102.716 16.4248 103.452 18.258 103.452 20.4519L103.452 20.4519 103.452 20.4519C103.452 22.6458 102.716 24.4716 101.243 25.9293L101.243 25.9293 101.243 25.9293C99.7711 27.4017 97.9379 28.1379 95.744 28.1379L95.744 28.1379ZM95.744 24.4937 95.744 24.4937 95.744 24.4937C96.8925 24.4937 97.8201 24.1035 98.5269 23.3231L98.5269 23.3231 98.5269 23.3231C99.2484 22.5574 99.6091 21.6004 99.6091 20.4519L99.6091 20.4519 99.6091 20.4519C99.6091 19.3034 99.2484 18.3463 98.5269 17.5807L98.5269 17.5807 98.5269 17.5807C97.8201 16.8003 96.8851 16.4101 95.7219 16.4101L95.7219 16.4101 95.7219 16.4101C94.5882 16.4101 93.6605 16.8003 92.939 17.5807L92.939 17.5807 92.939 17.5807C92.2323 18.3463 91.8789 19.3034 91.8789 20.4519L91.8789 20.4519 91.8789 20.4519C91.8789 21.6004 92.2323 22.5574 92.939 23.3231L92.939 23.3231 92.939 23.3231C93.6605 24.1035 94.5955 24.4937 95.744 24.4937ZM110.498 18.3316 110.498 18.3316 110.498 27.9833 106.257 27.9833 106.257 13.3401 110.498 12.8763 110.498 14.2236 110.498 14.2236C111.44 13.3401 112.647 12.8984 114.12 12.8984L114.12 12.8984 114.12 12.8984C116.019 12.8984 117.477 13.4726 118.493 14.6211L118.493 14.6211 118.493 14.6211C119.597 13.4726 121.254 12.8984 123.462 12.8984L123.462 12.8984 123.462 12.8984C125.376 12.8984 126.841 13.4726 127.857 14.6211L127.857 14.6211 127.857 14.6211C128.859 15.7843 129.359 17.1242 129.359 18.6408L129.359 18.6408 129.359 27.9833 125.141 27.9833 125.141 19.6789 125.141 19.6789C125.141 18.6776 124.913 17.8972 124.456 17.3377L124.456 17.3377 124.456 17.3377C124 16.7929 123.264 16.5058 122.248 16.4764L122.248 16.4764 122.248 16.4764C121.408 16.5353 120.687 17.0874 120.083 18.1328L120.083 18.1328 120.083 18.1328C120.024 18.442 119.995 18.7586 119.995 19.0825L119.995 19.0825 119.995 27.9833 115.776 27.9833 115.776 19.6789 115.776 19.6789C115.776 18.6776 115.548 17.8972 115.092 17.3377L115.092 17.3377 115.092 17.3377C114.635 16.7929 113.899 16.5058 112.883 16.4764L112.883 16.4764 112.883 16.4764C111.955 16.5353 111.16 17.1537 110.498 18.3316ZM135.035 17.2715 133.379 14.7095 133.379 14.7095C135.293 13.5021 137.509 12.8984 140.027 12.8984L140.027 12.8984 140.027 12.8984C141.838 12.8984 143.266 13.399 144.312 14.4003L144.312 14.4003 144.312 14.4003C145.372 15.4162 145.902 16.9254 145.902 18.9279L145.902 18.9279 145.902 27.9833 141.683 27.9833 141.683 26.7907 141.683 26.7907C140.447 27.5858 139.335 27.9833 138.348 27.9833L138.348 27.9833 138.348 27.9833C136.346 27.9833 134.837 27.5563 133.821 26.7023L133.821 26.7023 133.821 26.7023C132.819 25.8483 132.319 24.6704 132.319 23.1685L132.319 23.1685 132.319 23.1685C132.319 21.755 132.797 20.4961 133.754 19.3917L133.754 19.3917 133.754 19.3917C134.697 18.2874 136.228 17.7353 138.348 17.7353L138.348 17.7353 138.348 17.7353C139.335 17.7353 140.447 18.0371 141.683 18.6408L141.683 18.6408 141.683 18.177 141.683 18.177C141.654 17.0727 140.844 16.469 139.254 16.3659L139.254 16.3659 139.254 16.3659C137.443 16.3659 136.037 16.6678 135.035 17.2715L135.035 17.2715ZM141.683 23.4556 141.683 23.4556 141.683 21.755 141.683 21.755C141.286 20.9746 140.329 20.5844 138.812 20.5844L138.812 20.5844 138.812 20.5844C137.001 20.7905 136.044 21.4973 135.941 22.7047L135.941 22.7047 135.941 22.7047C136.044 23.8973 137.001 24.5452 138.812 24.6483L138.812 24.6483 138.812 24.6483C140.329 24.6483 141.286 24.2507 141.683 23.4556ZM153.919 18.3979 153.919 18.3979 153.919 27.9833 149.679 27.9833 149.679 13.3401 153.919 12.8763 153.919 14.2456 153.919 14.2456C154.935 13.3475 156.143 12.8984 157.541 12.8984L157.541 12.8984 157.541 12.8984C159.456 12.8984 160.913 13.4726 161.914 14.6211L161.914 14.6211 161.914 14.6211C162.916 15.7843 163.416 17.1242 163.416 18.6408L163.416 18.6408 163.416 27.9833 159.198 27.9833 159.198 19.6789 159.198 19.6789C159.198 18.6776 158.948 17.8972 158.447 17.3377L158.447 17.3377 158.447 17.3377C157.932 16.7929 157.166 16.5058 156.15 16.4764L156.15 16.4764 156.15 16.4764C155.281 16.5353 154.538 17.1758 153.919 18.3979ZM171.191 27.9833 166.972 27.9833 166.972 12.8763 171.191 12.8763 171.191 27.9833ZM166.818 9.27623 166.818 9.27623 166.818 9.27623C166.818 9.87993 167.016 10.3805 167.414 10.7781L167.414 10.7781 167.414 10.7781C167.826 11.1757 168.386 11.3744 169.093 11.3744L169.093 11.3744 169.093 11.3744C169.785 11.3744 170.337 11.1757 170.749 10.7781L170.749 10.7781 170.749 10.7781C171.147 10.3805 171.345 9.87993 171.345 9.27623L171.345 9.27623 171.345 9.27623C171.345 8.67254 171.147 8.16456 170.749 7.75228L170.749 7.75228 170.749 7.75228C170.337 7.34 169.77 7.13387 169.048 7.13387L169.048 7.13387 169.048 7.13387C168.371 7.13387 167.826 7.34 167.414 7.75228L167.414 7.75228 167.414 7.75228C167.016 8.16456 166.818 8.67254 166.818 9.27623ZM176.823 17.2715 175.166 14.7095 175.166 14.7095C177.08 13.5021 179.296 12.8984 181.814 12.8984L181.814 12.8984 181.814 12.8984C183.625 12.8984 185.061 13.399 186.121 14.4003L186.121 14.4003 186.121 14.4003C187.166 15.4162 187.689 16.9254 187.689 18.9279L187.689 18.9279 187.689 27.9833 183.471 27.9833 183.471 26.7907 183.471 26.7907C182.249 27.5858 181.144 27.9833 180.158 27.9833L180.158 27.9833 180.158 27.9833C178.141 27.9833 176.631 27.5563 175.63 26.7023L175.63 26.7023 175.63 26.7023C174.614 25.8483 174.106 24.6704 174.106 23.1685L174.106 23.1685 174.106 23.1685C174.106 21.755 174.585 20.4961 175.542 19.3917L175.542 19.3917 175.542 19.3917C176.484 18.2874 178.023 17.7353 180.158 17.7353L180.158 17.7353 180.158 17.7353C181.13 17.7353 182.234 18.0371 183.471 18.6408L183.471 18.6408 183.471 18.177 183.471 18.177C183.456 17.0727 182.653 16.469 181.063 16.3659L181.063 16.3659 181.063 16.3659C179.252 16.3659 177.839 16.6678 176.823 17.2715L176.823 17.2715ZM183.471 23.4556 183.471 23.4556 183.471 21.755 183.471 21.755C183.073 20.9746 182.116 20.5844 180.599 20.5844L180.599 20.5844 180.599 20.5844C178.788 20.7905 177.831 21.4973 177.728 22.7047L177.728 22.7047 177.728 22.7047C177.831 23.8973 178.788 24.5452 180.599 24.6483L180.599 24.6483 180.599 24.6483C182.116 24.6483 183.073 24.2507 183.471 23.4556Z"
                                      fill="#091F43" transform="matrix(1.04112 0 0 1 242.681 90.038)"/>
                                <g clip-path="url(#clip7)">
                                    <path d="M-80.6499 155.472C-74.8223 155.472-69.3589 153.235-65.2484 149.124-61.1378 145.014-58.9004 139.55-58.9004 133.723-58.9004 127.895-61.1378 122.432-65.2484 118.321-69.3589 114.211-74.8223 111.973-80.6499 111.973-86.4775 111.973-91.9409 114.211-96.0514 118.321-100.162 122.432-102.399 127.895-102.399 133.723-102.399 139.55-100.162 145.014-96.0514 149.124-91.9409 153.235-86.4775 155.472-80.6499 155.472ZM-79.4011 151.778C-79.8174 151.83-80.2336 151.83-80.6499 151.83-81.2222 151.83-81.7946 151.778-82.367 151.726-84.2401 148.812-85.645 145.69-86.4775 142.412L-77.2678 142.412C-76.9556 143.193-76.3832 143.921-75.7068 144.389-76.5914 146.991-77.8401 149.436-79.4011 151.778ZM-74.4581 150.737C-73.4694 148.916-72.689 147.095-72.0646 145.17-70.5556 144.858-69.3589 143.817-68.7865 142.412L-64.7801 142.412C-66.8614 146.21-70.3475 149.176-74.4581 150.737ZM-62.5947 133.723C-62.5947 135.44-62.8549 137.105-63.2711 138.718L-68.8906 138.718C-69.2028 138.041-69.7231 137.417-70.3475 136.949-70.2434 135.804-70.1914 134.659-70.1914 133.515-70.1914 131.902-70.2955 130.289-70.5036 128.728L-63.3232 128.728C-62.8028 130.289-62.5947 132.006-62.5947 133.723ZM-64.7801 125.033-71.128 125.033C-71.8044 122.172-72.793 119.466-74.1459 116.864-70.1914 118.373-66.8614 121.339-64.7801 125.033ZM-73.8337 133.515C-73.8337 134.399-73.8857 135.284-73.9377 136.168-75.3946 136.48-76.5914 137.417-77.1637 138.718L-87.2059 138.718C-87.4141 137.157-87.5702 135.544-87.5702 133.983-87.5702 132.994-87.5181 132.006-87.4141 131.017-86.0612 130.757-84.9686 129.872-84.2921 128.728L-74.1459 128.728C-73.9377 130.289-73.8337 131.902-73.8337 133.515ZM-82.0027 115.72C-81.5344 115.668-81.0661 115.668-80.6499 115.668-80.1296 115.668-79.6092 115.668-79.0889 115.72-77.2158 118.633-75.8109 121.755-74.9784 125.033L-84.032 125.033C-84.3442 124.149-84.9165 123.368-85.645 122.796-84.7084 120.298-83.5117 117.957-82.0027 115.72ZM-86.9458 116.76C-87.8303 118.425-88.6108 120.194-89.2352 121.963-90.8482 122.276-92.149 123.472-92.6693 124.981L-96.4677 124.981C-94.4384 121.287-91.0563 118.321-86.9458 116.76ZM-98.7051 133.723C-98.7051 132.006-98.4449 130.289-97.9766 128.728L-92.3051 128.728C-91.9929 129.3-91.5246 129.82-91.0043 130.237-91.1084 131.485-91.2124 132.734-91.2124 133.983-91.2124 135.596-91.1084 137.157-90.9002 138.718L-97.9766 138.718C-98.4969 137.105-98.7051 135.44-98.7051 133.723ZM-90.2758 142.36C-89.5994 145.17-88.6108 147.927-87.258 150.529-91.2124 148.968-94.4904 146.054-96.5197 142.36L-90.2758 142.36Z"
                                          fill="#091F43" transform="matrix(1.04112 0 0 1 296.124 -23.84)"/>
                                </g>
                            </g>
                        </g>
                    </g>
                </g>
            </g>
        </g>
    </g>
</svg>
